<?xml version="1.0" encoding="utf-8"?>
<!-- Generator: Adobe Illustrator 24.0.1, SVG Export Plug-In . SVG Version: 6.00 Build 0)  -->
<svg version="1.1" id="Layer_1" xmlns="http://www.w3.org/2000/svg" xmlns:xlink="http://www.w3.org/1999/xlink" x="0px" y="0px"
	 viewBox="0 0 315 400" style="enable-background:new 0 0 315 400;" xml:space="preserve">
<style type="text/css">
	.st0{fill:#222222;}
</style>
<g>
	<path class="st0" d="M279.6,116.8H267c-5.9,0-10.1,4-10.1,9.6V229c0,13.9-10.3,25.6-24.1,27.3H82.1C68.3,254.6,58,242.9,58,229
		V85.1c0-15.2,12.4-27.5,27.6-27.5h101c5,0,10.4-3.5,10.4-11.3V34.7c0-5.6-4.4-9.7-10.5-9.7H72c-25.7,0-46.6,20.9-46.6,46.6v170.9
		c0,11.1,4,21.8,11.1,30.2c-7.1,8.4-11.1,19.1-11.1,30.2v25.6c0,25.6,20.9,46.5,46.6,46.5h170.9c25.7,0,46.6-20.9,46.6-46.5V127.4
		C289.5,118.2,283.3,116.8,279.6,116.8z M229.5,342.5H85.6c-7.3,0-14.1-2.8-19.3-7.9c-5.1-5-8.1-11.8-8.2-19
		c0.4-13.6,10.7-25,24.1-26.6H233c13.4,1.7,23.7,13,24.1,26.6C256.6,330.5,244.3,342.5,229.5,342.5z"/>
	<path class="st0" d="M270,25h-35.6c-10.8,0-19.5,8.8-19.5,19.6v35.6c0,10.8,8.8,19.5,19.5,19.5H270c10.8,0,19.5-8.7,19.5-19.5V44.6
		C289.5,33.8,280.8,25,270,25z"/>
</g>
</svg>
