<?xml version="1.0" encoding="UTF-8"?>
<svg xmlns="http://www.w3.org/2000/svg" version="1.1" viewBox="0 0 315.3 500">
  <!-- Generator: Adobe Illustrator 29.1.0, SVG Export Plug-In . SVG Version: 2.1.0 Build 142)  -->
  <defs>
    <style>
      .st0 {
        fill: #020817;
      }
    </style>
  </defs>
  <g id="Layer_1" image-rendering="optimizeQuality" shape-rendering="geometricPrecision" text-rendering="geometricPrecision">
    <path class="st0" d="M308.8,434.2v-5.9c-.1,0-.4-5.8-.4-5.8l-.4-5.8-.5-5.7-.6-5.6-.8-5.6-.9-5.6-1-5.6-1-5.6-1.1-5.6-1.2-5.7-2.5-11.5-2.7-12-1.4-5.7-1.4-5.5-1.5-5.3-.8-2.5-.9-2.5-.9-2.4-1-2.3-1-2.3-1.1-2.2-1.2-2.1-1.2-2.1-1.3-2-1.4-1.9-1.5-1.8-1.6-1.8-1.7-1.7-1.8-1.6-1.9-1.5-2-1.4-2.1-1.4-2.3-1.3-2.4-1.2-2.6-1.1-2.7-1-2.8-.9-1.1-.8-1-.8-1.9-1.7-5.3-5.4-1.9-1.7-1-.8-1-.8-1.1-.7-1.1-.6h0c0,0-.5-1.5-.5-1.5l-.6-1.2-.8-1.2-.8-1-.9-.9-.9-.8-3.7-2.9-.8-.7-.7-.7-.6-.8-.4-.8-.3-.9v-.7c0,0-.1-.1-.1-.1h0c0-.1-.1-.2-.1-.2h-.3s-.5.1-.5.1l-1.3.5-1.7.9-2,1.1-4.6,2.7-5,3.1-4.8,3.1-7.9,5.2-.2.2v.2s.2,3.9.2,3.9l.2,4.4v4.6c.1,0,.2,4.8.2,4.8v10.2s-.1,10.7-.1,10.7l-.3,11-.9,32.1v.2s.1.1.1.1h.1c0,0,.2.1.2.1h.3c0-.1.3-.4.3-.4l.2-.4v-.4c.1,0,.2-.3.2-.3v5.5s0,1.4,0,1.4l-.2,1.4-.3,1.4-.4,1.3-.6,1.2-.4.6-.4.6-.5.5-.6.5-.6.5-.7.4-.8.4-.9.4-.9.3-1,.3-1.1.3h-.8c0,.1-.1,0-.1,0h-.2c0-.1.7-6.2.7-6.2l3-25.5.7-6.2.6-6.2.5-6.1.3-6v-5.9c.1,0,.1-2.9.1-2.9v-2.9c0,0-.2-2.9-.2-2.9l-.2-2.9-.2-2.8-.3-2.8-.4-2.8-.5-2.8-.5-2.7-.6-2.7-.7-2.7-.7-2.5h0c0-.1.5-.2.5-.2l.5-.2,1.2-.6,1-.7,1.9-1.5.9-.6.4-.2h.4c0-.1.4-.2.4-.2h.4s.2,0,.2,0l4.5-3,4.6-3.1,5.1-3.6,2.5-1.8,2.3-1.8,2.1-1.7,1.7-1.5,1.2-1.3.4-.6.2-.4v-.3c0,0,0-.2,0-.2v-.2c0,0-.3-.2-.3-.2h-.2c0,0-.4-.2-.4-.2l-.8.3h-.6c0,0-.5,0-.5,0l-.5-.2-.4-.4-1.6-2.2-.6-.6-.7-.6-.8-.5-1-.4-1.2-.3h-1.4c0-.1-1.6,0-1.6,0h-.1c0,0-.1-.6-.1-.6l-.2-.5-.3-.5-.3-.5-.4-.4-.5-.4-.9-.6-1.1-.5-1.2-.4-1.3-.3-1.4-.3-7.3-1-1.4-.3-1.3-.3-1-.3h0c0-.1.5-1.5.5-1.5l.4-1.6.3-1.6.3-1.7.2-1.7v-1.7c.1,0,.3-3.4.3-3.4v-6.6c.1,0,.3-3.1.3-3.1l.2-1.5.2-1.2h.1c0,0,2.5.4,2.5.4l2.3.3h1.9c0,.1.8,0,.8,0h.8c0,0,.7-.2.7-.2l.6-.2.5-.2.5-.2.4-.3.4-.3.7-.8.5-.8.4-.9.3-1,.7-3.1.3-1,.4-1,1-1.8.4-1,.4-1,1.2-4.4.4-1,.4-1,.6-.9.7-.8.4-.4.9-.6.5-.3.6-.2.6-.2.7-.2,1.6-.2h1.7c0,0,.8-.2.8-.2l.7-.3.6-.3.5-.4.5-.5.4-.6.3-.6.3-.7.2-.7.3-1.5.2-1.7.4-5.4.2-1.7.4-1.6.3-.7.3-.7.4-.6.4-.6.5-.5.6-.4.6-.3,1.5-.5.8-.4.7-.5.6-.5.5-.6.5-.7.4-.8.4-.8.3-.9.3-1,.3-1.1.2-1.1.3-2.3.2-2.5v-2.7s0-2.8,0-2.8l-.2-2.8-.3-2.8-.3-2.8-.4-2.8-.9-5.3-.3-1.2-.4-1.1-.6-1-.7-.9-.8-.7-.9-.6-1-.6-1.1-.5-1.1-.4-1.1-.3-1.2-.2-1.3-.2-2.6-.2h-2.6s-2.5,0-2.5,0l-2.4.2-5.3.5h-.9s-.2,0-.2,0h0c0-.1.3-.3.3-.3l2-1.4,1.4-1,1.5-1.2,1.5-1.4,1.4-1.5.7-.8.6-.9.6-.9.5-1,.4-1,.3-1,.2-1.1v-1.1c.1,0,.1-1.1.1-1.1v-1.2c-.1,0-.4-1.2-.4-1.2l-.4-1.2-.6-1.2-.8-1.3-.9-1.3-1.2-1.3-1.4-1.3-1.6-1.4-1.8-1.4-2.1-1.4-2.1-1.3-2-1.2-1.8-1-1.7-.8-1.6-.7-1.4-.6-1.3-.4-1.3-.3-1.1-.2h-1.1c0,0-1,0-1,0h-.8c0,0-.8.3-.8.3l-.8.3-.7.3-.6.4-.5.4-.5.5-1,1.1-2.7,3.5-1,1-.6.5-.6.4-.6.4-.7.3-.7.2h-.7c0,.1-.6.2-.6.2h-.6s-.6-.2-.6-.2l-.5-.2-.5-.3-.5-.3-.4-.4-.4-.5-.8-1.1-.7-1.3-.6-1.4-.6-1.5-2.3-6.5-.6-1.6-.7-1.5-.8-1.3-.8-1.2-.9-1.1-.9-1.1-1-1-1-.9-1.1-.9-1.1-.8-1.2-.8-1.3-.7-1.4-.7-1.4-.7-1.5-.6-1.6-.6-1.8-.6-3.9-1.1-1-.2h-1c0-.1-.9,0-.9,0h-.8c0,.1-.8.3-.8.3l-.6.3-.6.4-.6.5-.6.6-.5.6-.4.7-.4.7-.7,1.6-.6,1.7-.5,1.7-.4,1.8-1.1,6.7-.3,1.3-.3,1-.4.8-.5.7-.6.5-.7.4-.8.3-.9.2h-.8c0,0-.9,0-.9,0h-.8c0-.1-.8-.4-.8-.4l-.7-.3-.6-.4-.5-.5-.4-.6-.2-.7v-1.6c0,0-.2-.9-.2-.9l-.3-.9-.4-.9-.5-.9-.7-.9-.8-.9-.9-.8-1.1-.8-1.2-.7-1.3-.6-1.5-.4-1.6-.3h-1.8c0-.1-1.9,0-1.9,0l-2.1.3-1,.2-.9.3-.9.3-.8.4-.7.4-.6.5-.6.5-.5.5-.5.6-.4.5-.6,1.1-.4,1.1-.2,1v.9c0,0,0,.7,0,.7v.6c.1,0,.2.2.2.2l.2.2h.2c0,0,.2,0,.2,0v-.2c.1,0,.4-.6.4-.6l.4-1.7.2-.5.3-.4.3-.4.4-.3.4-.2.4-.2h.5c0-.1.5-.2.5-.2h.5s1.1.2,1.1.2l1.2.3,1.2.5,1.2.6,1.1.8,1.1.8,1,.9.8,1,.6,1,.4,1v.5c.1,0,.2.4.2.4v1s0,1,0,1v1.1c-.1,0-.4,1.1-.4,1.1l-.3,1.1-.4,1.1-.5,1-.7,1-.8.9-.9.8-.5.3-1.1.6-.6.2-.7.2h-.7c0,.1-.7.2-.7.2h-.8s-.8,0-.8,0h-.9c0-.1-.9-.3-.9-.3l-4.7-1.2-1.8-.4-1.8-.3-1.7-.2h-1.7c0,0-1.6,0-1.6,0l-1.6.2-1.5.3-1.4.5-1.4.7-1.3.8-1.2,1-1.2,1.3-1.1,1.4-1.1,1.6-.5.9-.4.9-.3,1-.2.9v.9c-.1,0-.1.9-.1.9v.9s.1.9.1.9l.3,1.9.5,1.8,2.1,6.4.3,1.3v.6c0,0,0,.5,0,.5v.5c0,0-.2.4-.2.4l-.2.4-.3.3-.4.3-.5.2-.6.2-1.5.2-.8.2-.7.2-.7.3-.7.3-.7.4-1.2.9-1,1-1,1.2-.9,1.4-.8,1.5-.8,1.7-.7,1.8-.7,1.9-.6,2-1.2,4.3-1.1,4.5-.2,1.1v1.1c-.1,0-.1,1-.1,1v1c0,0,.2,1,.2,1l.2.9.3.9.4.8.4.8.5.8,1.1,1.4,1.2,1.3,1.2,1.1,4.1,3.3.5.6v.2c.1,0,.2.2.2.2v.3s-.1.2-.1.2l-.2.2-.7.4-.4.3-.4.4-.3.4-.7,1.1-.5,1.2-.5,1.4-.4,1.6-.3,1.7-.2,1.8v1.9c-.1,0-.2,2-.2,2v2s.2,2,.2,2l.2,1.9.3,1.9.4,1.8.5,1.7.3.7.4.6.6.6.6.4.7.3.7.2.9.2h.9c0,0,1,0,1,0h1s2.1-.3,2.1-.3l2.1-.4,5.9-1.3,1.5-.3h1.2c0,0,.5,0,.5,0h.3c0,.1.2.3.2.3v.2c0,0,0,.3,0,.3l-.2.4-.3.6-1,1.4-.5.7-.4.7-.3.7-.2.7v.7c-.1,0-.2.7-.2.7v.7s.1.6.1.6l.2.6.2.6.3.6.4.6.5.6,1.1,1.2,1.4,1.3,1.6,1.2,1.9,1.3,2.2,1.3,2.4,1.4,2.7,1.4,6,3.1,1.2.8,1.2.6,1.1.4,1,.3,1,.2,2.6.4.7.2.6.3.6.4.5.6.4.8.3,1.1.3,1.4.2,1.7v1.3s-.2,1.3-.2,1.3l-.4,1.3-.6,1.3-.7,1.3-.9,1.4-1,1.4-1.1,1.4-1.2,1.4-1.3,1.4-2.9,2.9-3.2,2.9-3,2.6h0c0,.1,0,.4,0,.4v.3c.1,0,1.1.6,1.1.6l3.7,1.9,11.5,5.5,16.8,7.8h.5c0,.1.3.2.3.2l.3.2.3.3,1.2,1.9.3.3.3.2.4.2h.5c0,0,.5,0,.5,0h.5c0,0,0,0,0,0l-.3,8-.3,8.8-.2,9.1v9.3c-.1,0-.3,35.8-.3,35.8v3.1c0,0-.3,3.4-.3,3.4l-.4,3.4-.3,1.7-.3,1.7-.4,1.6-.4,1.5-.5,1.4-.5,1.3-.6,1.2-.7,1-.7.8-.7.6h-.1s-.7-.2-.7-.2l-.8-.3-.7-.4-.6-.4-.5-.5-.4-.5-.4-.6-.3-.6-.3-.6-.2-.7-.3-1.5v-1.6c-.1,0-.2-1.7-.2-1.7v-1.8c.1,0,.3-1.8.3-1.8l1.3-8.7.9-10,.9-8.9,2-18.3.8-9.1.3-4.4.3-4.4.2-4.2v-4.1c0,0,0-4,0-4l-.2-3.6v-.2s-.2-.1-.2-.1l-.5-.4-1.3-.8-4.1-2.4-5.6-3.1-6.3-3.3-11.6-6-5-2.5h-.2s-.2,0-.2,0h-.1c0,0-2.8,2.6-2.8,2.6l-2.8,2.6-2.7,2.6-2.5,2.6-1.1,1.3-1.1,1.3-1,1.3-.9,1.3-.8,1.3-.7,1.3-.6,1.3-.4,1.2h0c0,0-2.2,1.6-2.2,1.6l-2.2,1.3-2.2,1.2-2.2,1-2.2.9-2.2.8-8.6,2.9-2.1.7-2.1.8-2.1.9-2,1-2,1.1-2,1.2-1.6,1.1-1.5,1.2-1.4,1.2-1.4,1.3-1.3,1.3-1.3,1.4-1.2,1.5-1.2,1.5-1.1,1.6-1.1,1.6-1,1.7-1,1.7-.9,1.7-.9,1.8-1.7,3.7-1.5,3.8-1.4,4-1.3,4.1-1.2,4.2-1.1,4.3-1,4.4-.9,4.5-.9,4.5-1.7,9.2-3.2,18.5-.9,4.6-.9,4.6-1,4.5-1,4.4-1.1,4.4-1.2,4.3-1.3,4.2-1.5,4.1-1.6,3.9-1.7,3.7v.2s0,2.4,0,2.4v2.4c.1,0,.3,2.4.3,2.4l.3,2.3.3,2.2.4,2.1v.4c40.1,34.9,92.5,56.1,149.8,56.1s110.8-21.6,151-57.3v-2.5c0,0,.1-6.1.1-6.1Z"/>
  </g>
</svg>