<?xml version="1.0" encoding="utf-8"?>
<!-- Generator: Adobe Illustrator 23.1.1, SVG Export Plug-In . SVG Version: 6.00 Build 0)  -->
<svg version="1.1" id="Layer_1" xmlns="http://www.w3.org/2000/svg" xmlns:xlink="http://www.w3.org/1999/xlink" x="0px" y="0px"
	 viewBox="0 0 400 400" style="enable-background:new 0 0 400 400;" xml:space="preserve">
<style type="text/css">
	.st0{fill:#FFDA4C;}
	.st1{fill:none;}
	.st2{fill:#222222;}
</style>
<circle class="st0" cx="200" cy="200" r="200"/>
<g>
	<path class="st1" d="M253.9,263.6H146.1c-9.6,1.2-16.9,9.3-17.2,19c0.1,5.1,2.2,9.9,5.9,13.5c3.7,3.6,8.6,5.6,13.8,5.6h102.8
		c10.6,0,19.4-8.6,19.7-19.2C270.8,272.9,263.4,264.8,253.9,263.6z"/>
	<path class="st2" d="M287.2,140.6h-8.9c-4.2,0-7.2,2.8-7.2,6.9v73.3c0,9.9-7.4,18.3-17.2,19.5H146.1c-9.8-1.2-17.2-9.6-17.2-19.5
		V117.9c0-10.8,8.8-19.7,19.7-19.7h72.2c3.6,0,7.4-2.5,7.4-8.1V82c0-4-3.2-7-7.5-7H139c-18.3,0-33.3,14.9-33.3,33.3v122.1
		c0,8,2.9,15.6,7.9,21.6c-5.1,6-7.9,13.6-7.9,21.6v18.3c0,18.3,14.9,33.2,33.3,33.2H261c18.3,0,33.3-14.9,33.3-33.2V148.2
		C294.3,141.5,289.8,140.6,287.2,140.6z M251.4,301.8H148.6c-5.2,0-10.1-2-13.8-5.6c-3.7-3.6-5.8-8.4-5.9-13.5
		c0.3-9.7,7.6-17.8,17.2-19h107.7c9.6,1.2,16.9,9.3,17.2,19C270.8,293.2,262,301.8,251.4,301.8z"/>
	<path class="st2" d="M280.3,75h-25.4c-7.7,0-14,6.3-14,14v25.4c0,7.7,6.3,13.9,14,13.9h25.4c7.7,0,14-6.2,14-13.9V89
		C294.3,81.3,288,75,280.3,75z"/>
</g>
</svg>
